<?xml version="1.0" encoding="UTF-8" standalone="no"?>
<!-- Generator: Adobe Illustrator 16.0.0, SVG Export Plug-In . SVG Version: 6.00 Build 0)  -->

<svg
   xmlns:dc="http://purl.org/dc/elements/1.1/"
   xmlns:cc="http://creativecommons.org/ns#"
   xmlns:rdf="http://www.w3.org/1999/02/22-rdf-syntax-ns#"
   xmlns:svg="http://www.w3.org/2000/svg"
   xmlns="http://www.w3.org/2000/svg"
   xmlns:sodipodi="http://sodipodi.sourceforge.net/DTD/sodipodi-0.dtd"
   xmlns:inkscape="http://www.inkscape.org/namespaces/inkscape"
   version="1.1"
   id="Capa_1"
   x="0px"
   y="0px"
   width="500"
   height="500"
   viewBox="0 0 499.99998 499.99998"
   xml:space="preserve"
   inkscape:version="0.91 r"
   sodipodi:docname="wordpress.svg"><metadata
     id="metadata4444"><rdf:RDF><cc:Work
         rdf:about=""><dc:format>image/svg+xml</dc:format><dc:type
           rdf:resource="http://purl.org/dc/dcmitype/StillImage" /><dc:title></dc:title></cc:Work></rdf:RDF></metadata><defs
     id="defs4442" /><sodipodi:namedview
     pagecolor="#ffffff"
     bordercolor="#666666"
     borderopacity="1"
     objecttolerance="10"
     gridtolerance="10"
     guidetolerance="10"
     inkscape:pageopacity="0"
     inkscape:pageshadow="2"
     inkscape:window-width="1366"
     inkscape:window-height="715"
     id="namedview4440"
     showgrid="false"
     inkscape:zoom="0.58646111"
     inkscape:cx="48.490002"
     inkscape:cy="321.31287"
     inkscape:window-x="0"
     inkscape:window-y="29"
     inkscape:window-maximized="1"
     inkscape:current-layer="Capa_1" /><g
     id="g4396"
     transform="matrix(4.928716,0,0,4.928716,11.99607,12.013121)"><g
       id="g4398"><path
         d="M 49.16,51.833 37.694,85.152 c 3.425,1.004 7.046,1.558 10.798,1.558 4.449,0 8.719,-0.77 12.689,-2.167 -0.102,-0.164 -0.195,-0.338 -0.271,-0.527 L 49.16,51.833 Z"
         id="path4400"
         inkscape:connector-curvature="0" /><path
         d="m 10.272,48.488 c 0,15.129 8.792,28.202 21.541,34.396 L 13.583,32.935 c -2.12,4.753 -3.311,10.013 -3.311,15.553 z"
         id="path4402"
         inkscape:connector-curvature="0" /><path
         d="m 74.289,46.56 c 0,-4.723 -1.695,-7.993 -3.149,-10.541 -1.938,-3.148 -3.754,-5.813 -3.754,-8.962 0,-3.513 2.664,-6.783 6.418,-6.783 0.17,0 0.33,0.021 0.496,0.029 -6.798,-6.227 -15.856,-10.031 -25.807,-10.031 -13.354,0 -25.101,6.85 -31.932,17.227 0.896,0.027 1.739,0.046 2.459,0.046 3.998,0 10.187,-0.485 10.187,-0.485 2.062,-0.124 2.302,2.903 0.245,3.146 0,0 -2.071,0.243 -4.374,0.365 L 38.993,71.968 47.356,46.883 41.4,30.57 c -2.058,-0.122 -4.007,-0.365 -4.007,-0.365 -2.058,-0.12 -1.818,-3.268 0.241,-3.146 0,0 6.313,0.485 10.066,0.485 3.997,0 10.188,-0.485 10.188,-0.485 2.062,-0.122 2.303,2.903 0.243,3.146 0,0 -2.073,0.243 -4.374,0.365 L 67.57,71.653 71.382,58.915 c 1.651,-5.286 2.907,-9.084 2.907,-12.355 z"
         id="path4404"
         inkscape:connector-curvature="0" /><path
         d="m 82.025,30.153 c 0.164,1.216 0.258,2.525 0.258,3.93 0,3.878 -0.723,8.238 -2.905,13.689 L 67.703,81.523 C 79.064,74.897 86.709,62.587 86.709,48.49 86.71,41.844 85.011,35.596 82.025,30.153 Z"
         id="path4406"
         inkscape:connector-curvature="0" /><path
         d="M 48.49,0 C 21.71,0 0.001,21.71 0.001,48.49 0.001,75.27 21.71,96.98 48.49,96.98 75.27,96.98 96.979,75.27 96.979,48.49 96.979,21.71 75.27,0 48.49,0 Z m 0.002,90.997 C 25.052,90.997 5.985,71.93 5.985,48.488 5.985,25.05 25.051,5.983 48.492,5.983 c 23.437,0 42.503,19.068 42.503,42.505 10e-4,23.44 -19.067,42.509 -42.503,42.509 z"
         id="path4408"
         inkscape:connector-curvature="0" /></g></g><g
     id="g4410"
     transform="translate(0,403.02)" /><g
     id="g4412"
     transform="translate(0,403.02)" /><g
     id="g4414"
     transform="translate(0,403.02)" /><g
     id="g4416"
     transform="translate(0,403.02)" /><g
     id="g4418"
     transform="translate(0,403.02)" /><g
     id="g4420"
     transform="translate(0,403.02)" /><g
     id="g4422"
     transform="translate(0,403.02)" /><g
     id="g4424"
     transform="translate(0,403.02)" /><g
     id="g4426"
     transform="translate(0,403.02)" /><g
     id="g4428"
     transform="translate(0,403.02)" /><g
     id="g4430"
     transform="translate(0,403.02)" /><g
     id="g4432"
     transform="translate(0,403.02)" /><g
     id="g4434"
     transform="translate(0,403.02)" /><g
     id="g4436"
     transform="translate(0,403.02)" /><g
     id="g4438"
     transform="translate(0,403.02)" /></svg>